# xmcd CD database file generated by Grip 3.0.1
# 
# Track frame offsets:
#       150
#       16142
#       37917
#       57017
# 
# Disc length: 967 seconds
# 
# Revision: 2
# Processed by: cddbd v1.4PL0 Copyright (c) Steve Scherf et al.
# Submitted via: Grip 3.0.1
# 
DISCID=2103c504
DTITLE=Melek Taus - Expulsion From The Realms Of Light
DYEAR=1996
DGENRE=Hard Rock
TTITLE0=We Unite
TTITLE1=Encircled By Fire
TTITLE2=Where The Forest Never Ends
TTITLE3=A Dedication To The Northern Nature
EXTD=
EXTT0=
EXTT1=
EXTT2=
EXTT3=
PLAYORDER=
